<svg width="20" height="20" viewBox="0 0 20 20" fill="none" xmlns="http://www.w3.org/2000/svg">
<path d="M11.6667 11.6667L13.9792 8.03275C15.3485 5.88092 16.0332 4.805 15.7741 3.93139C15.6928 3.65711 15.5535 3.40346 15.3658 3.18758C14.7679 2.5 13.4926 2.5 10.942 2.5L9.05802 2.5C6.50743 2.5 5.23214 2.5 4.63419 3.18758C4.44645 3.40346 4.30722 3.6571 4.22588 3.93139C3.96682 4.805 4.65149 5.88092 6.02084 8.03275L8.33333 11.6667M11.6667 11.6667L8.33333 11.6667M11.6667 11.6667L11.6667 14.3581C11.6667 15.4703 11.6667 16.0264 11.5414 16.2847C11.2319 16.9231 10.4536 17.1762 9.82779 16.842C9.57458 16.7067 9.2475 16.257 8.59332 15.3575V15.3575C8.52533 15.264 8.49134 15.2173 8.46344 15.1681C8.39698 15.0509 8.3549 14.9214 8.33971 14.7876C8.33333 14.7314 8.33333 14.6736 8.33333 14.558L8.33333 11.6667" stroke="white" stroke-width="1.5" stroke-linejoin="round"/>
</svg>
