<svg width="24" height="24" viewBox="0 0 24 24" fill="none" xmlns="http://www.w3.org/2000/svg">
<path fill-rule="evenodd" clip-rule="evenodd" d="M10.874 6C10.4299 4.27477 8.86384 3 7 3C4.79086 3 3 4.79086 3 7C3 9.20914 4.79086 11 7 11C8.86384 11 10.4299 9.72523 10.874 8H19V6H10.874ZM9 7C9 8.10457 8.10457 9 7 9C5.89543 9 5 8.10457 5 7C5 5.89543 5.89543 5 7 5C8.10457 5 9 5.89543 9 7ZM13.126 17C13.5701 18.7252 15.1362 20 17 20C19.2091 20 21 18.2091 21 16C21 13.7909 19.2091 12 17 12C15.1362 12 13.5701 13.2748 13.126 15H5V17H13.126ZM19 16C19 17.1046 18.1046 18 17 18C15.8954 18 15 17.1046 15 16C15 14.8954 15.8954 14 17 14C18.1046 14 19 14.8954 19 16Z" fill="#171717"/>
</svg>
